<svg id="Layer_1" data-name="Layer 1" xmlns="http://www.w3.org/2000/svg" viewBox="0 0 24 24"><defs><style>.cls-1{fill:#010101;}</style></defs><path class="cls-1" d="M1.08,10.61,3,10A1.23,1.23,0,0,0,3.8,8.5a1.2,1.2,0,0,0-.2-.39L2.38,6.44A1.46,1.46,0,0,1,4,4.15l1.9.7a1.14,1.14,0,0,0,1.49-.74,1.31,1.31,0,0,0,.07-.44l-.06-2.1A1.4,1.4,0,0,1,9.93.7l1.14,1.73a1.14,1.14,0,0,0,1.63.32,1.31,1.31,0,0,0,.3-.32L14.13.7a1.4,1.4,0,0,1,2.57.87l-.05,2.1a1.19,1.19,0,0,0,1.14,1.25,1,1,0,0,0,.42-.07l1.89-.7a1.46,1.46,0,0,1,1.59,2.29L20.47,8.11a1.25,1.25,0,0,0,.21,1.71,1.16,1.16,0,0,0,.38.2l1.93.6a1.49,1.49,0,0,1,0,2.82l-1.93.6a1.23,1.23,0,0,0-.79,1.52,1.2,1.2,0,0,0,.2.39l1.22,1.67A1.45,1.45,0,0,1,20.1,19.9l-1.89-.7a1.14,1.14,0,0,0-1.49.74,1.1,1.1,0,0,0-.07.44l.05,2.1a1.4,1.4,0,0,1-2.57.88L13,21.62a1.14,1.14,0,0,0-1.63-.32,1.3,1.3,0,0,0-.3.32L9.93,23.35a1.4,1.4,0,0,1-2.57-.87l.06-2.1a1.19,1.19,0,0,0-1.14-1.25,1,1,0,0,0-.42.07L4,19.9a1.46,1.46,0,0,1-1.58-2.29L3.6,15.94a1.25,1.25,0,0,0-.21-1.71A1.27,1.27,0,0,0,3,14l-1.93-.6a1.49,1.49,0,0,1,0-2.82Z"/></svg>