<svg xmlns="http://www.w3.org/2000/svg" viewBox="0 0 24 24"><path d="M21.77,11.41a.9.9,0,0,1-.9-.9,7.24,7.24,0,0,0-7.24-7.24.91.91,0,0,1,0-1.81,9.06,9.06,0,0,1,9,9.05A.9.9,0,0,1,21.77,11.41Zm-2.71-.9a5.43,5.43,0,0,0-5.43-5.43.91.91,0,0,0,0,1.81,3.62,3.62,0,0,1,3.62,3.62.91.91,0,0,0,1.81,0Zm2,11,.83-1a2.81,2.81,0,0,0,0-4l-2.21-1.7a2.81,2.81,0,0,0-3.87,0l-1.73,1.46a11.59,11.59,0,0,1-6.27-6.28L9.23,8.36a2.81,2.81,0,0,0,0-3.88L7.53,2.28a2.78,2.78,0,0,0-3.91,0l-1,.9c-6.15,7.13,7.09,20.27,14.45,20A5.55,5.55,0,0,0,21,21.51Z" fill="#ffffff"/></svg>