<svg fill="none" height="24" viewBox="0 0 24 24" width="24" xmlns="http://www.w3.org/2000/svg"><path d="m2.04698 14.6669c.03362.127.09212.2461.17212.3503.07999.1042.17989.1915.29388.2567l1.909 1.104v2.199c0 .2653.10536.5196.2929.7071.18753.1876.44189.2929.7071.2929h2.199l1.104 1.91c.13299.2293.3514.3965.60742.4651.25601.0686.52878.033.7586-.0991l1.909-1.103 1.91 1.104c.2298.1321.5026.1677.7586.0991s.4744-.2358.6074-.4651l1.103-1.909h2.199c.2652 0 .5196-.1053.7071-.2929.1875-.1875.2929-.4418.2929-.7071v-2.199l1.909-1.104c.1138-.0655.2136-.1529.2936-.2571.08-.1041.1387-.2231.1727-.35.034-.1268.0426-.2592.0254-.3894s-.0599-.2558-.1257-.3695l-1.103-1.91 1.104-1.909c.1326-.22964.1685-.50258.0999-.75876-.0687-.25617-.2362-.47459-.4659-.6072l-1.909-1.104v-2.199c0-.26522-.1054-.51957-.2929-.70711-.1875-.18753-.4419-.29289-.7071-.29289h-2.199l-1.103-1.909c-.1329-.22937-.3511-.39689-.607-.466-.1269-.03433-.2593-.04316-.3895-.026-.1303.01716-.2559.05999-.3695.126l-1.911 1.103-1.909-1.104c-.11362-.06596-.23912-.10885-.36933-.12621-.13021-.01735-.26256-.00883-.38947.02508s-.24588.09254-.35008.17253-.19158.17977-.25714.2936l-1.104 1.91h-2.199c-.26521 0-.51957.10536-.7071.29289-.18754.18754-.2929.44189-.2929.70711v2.199l-1.909 1.105c-.2293.13297-.3965.35146-.46492.60754-.06843.25608-.03249.52884.09992.75842l1.103 1.909-1.104 1.909c-.1321.2296-.16805.5021-.1.758z" fill="rgb(0,0,0)"/></svg>