<svg id="Layer_1" data-name="Layer 1" xmlns="http://www.w3.org/2000/svg" viewBox="0 0 24 24"><defs><style>.cls-1{fill:#ffffff;}</style></defs><path class="cls-1" d="M23.61,14.63l0-.06A1.91,1.91,0,0,0,21,14.31L17.53,17a4.06,4.06,0,0,1-2.35.85l-2.57.08a.3.3,0,0,1-.26-.13l-.29-.48a.25.25,0,0,1,0-.25.26.26,0,0,1,.2-.15l2.66-.49a1.76,1.76,0,0,0-.33-3.5h-.09l-3.55-.14a8.29,8.29,0,0,0-4,.88L5,14.5a1.57,1.57,0,0,0-1.41-.85H1.56A1.52,1.52,0,0,0,0,15.14V22.5A1.54,1.54,0,0,0,1.56,24H3.62a1.52,1.52,0,0,0,1.55-1.5V22l2-.35a8.12,8.12,0,0,1,1.72-.1l5.4.24a8,8,0,0,0,5.34-1.73l3.74-3h0A1.72,1.72,0,0,0,23.61,14.63ZM4.17,22.5a.54.54,0,0,1-.55.53H1.55A.54.54,0,0,1,1,22.5V15.14a.54.54,0,0,1,.55-.53H3.62a.54.54,0,0,1,.55.53Zm18.54-6.17-3.74,3a7,7,0,0,1-4.66,1.51l-5.4-.24A8.63,8.63,0,0,0,7,20.7H7L5.17,21V15.5l2.16-1a7.39,7.39,0,0,1,3.57-.78l3.58.14h.1a.8.8,0,0,1,.15,1.59l-2.66.48a1.24,1.24,0,0,0-1,1.45,1.38,1.38,0,0,0,.15.4l.29.47a1.32,1.32,0,0,0,1.16.61l2.57-.09a5.14,5.14,0,0,0,3-1.05l3.42-2.67a.9.9,0,0,1,1.18.1l0,.06A.78.78,0,0,1,22.71,16.33Z"/><path class="cls-1" d="M16,0A6.46,6.46,0,0,0,9.42,6.33,6.46,6.46,0,0,0,16,12.66a6.46,6.46,0,0,0,6.57-6.33A6.47,6.47,0,0,0,16,0Zm0,11.7a5.48,5.48,0,0,1-5.58-5.37h0A5.48,5.48,0,0,1,16,1a5.47,5.47,0,0,1,5.57,5.36A5.47,5.47,0,0,1,16,11.7Z"/><path class="cls-1" d="M18,4.84h-.68A1.94,1.94,0,0,0,17,4.16h1a.49.49,0,1,0,0-1H14a.49.49,0,1,0,0,1h1.12a1.2,1.2,0,0,1,1.07.68H14a.49.49,0,1,0,0,1h2.19a1.33,1.33,0,0,1-.23.3,1.23,1.23,0,0,1-.84.33H14a.5.5,0,0,0-.51.49.48.48,0,0,0,.16.35l2.81,2.56a.52.52,0,0,0,.71,0,.47.47,0,0,0,0-.68l-1.9-1.73a2.14,2.14,0,0,0,1.41-.61,2.11,2.11,0,0,0,.59-1H18a.49.49,0,1,0,0-1Z"/></svg>