<svg id="Layer_1" data-name="Layer 1" xmlns="http://www.w3.org/2000/svg" viewBox="0 0 24 24"><defs><style>.cls-1{fill:#010101;}</style></defs><path class="cls-1" d="M19,4.44a.58.58,0,0,0-.59.58.59.59,0,1,0,1.17,0A.58.58,0,0,0,19,4.44Z"/><path class="cls-1" d="M12.06,6.83A5.17,5.17,0,1,0,17.22,12,5.18,5.18,0,0,0,12.06,6.83Z"/><path class="cls-1" d="M17.48,0H6.64A6.59,6.59,0,0,0,.06,6.58V17.42A6.59,6.59,0,0,0,6.64,24H17.48a6.59,6.59,0,0,0,6.58-6.58V6.58A6.59,6.59,0,0,0,17.48,0ZM12.06,18.58A6.58,6.58,0,1,1,18.64,12,6.59,6.59,0,0,1,12.06,18.58ZM19,7a2,2,0,1,1,2-2A2,2,0,0,1,19,7Z"/></svg>