<svg id="Layer_1" data-name="Layer 1" xmlns="http://www.w3.org/2000/svg" viewBox="0 0 24 24"><defs><style>.cls-1{fill:#010101;}</style></defs><path class="cls-1" d="M3.9,11.57a1.29,1.29,0,0,0,1.82,1.82,8.88,8.88,0,0,1,12.56,0,1.3,1.3,0,0,0,1.82,0,1.29,1.29,0,0,0,0-1.82A11.46,11.46,0,0,0,3.9,11.57Z"/><path class="cls-1" d="M7.37,15a1.29,1.29,0,1,0,1.82,1.82,4,4,0,0,1,5.62,0,1.27,1.27,0,0,0,.9.38,1.29,1.29,0,0,0,.91-2.2A6.55,6.55,0,0,0,7.37,15Z"/><circle class="cls-1" cx="12" cy="19.66" r="1.71"/><path class="cls-1" d="M23.62,8A16.47,16.47,0,0,0,.38,8a1.27,1.27,0,0,0,0,1.82,1.28,1.28,0,0,0,1.81,0,13.89,13.89,0,0,1,19.62,0,1.29,1.29,0,0,0,.91.38,1.29,1.29,0,0,0,.9-2.2Z"/></svg>